<svg width="119" height="39" viewBox="0 0 119 39" fill="none" xmlns="http://www.w3.org/2000/svg">
<path d="M20.8113 5.40087L19.3951 1.6619C18.8912 0.332011 17.4035 -0.336253 16.0745 0.170135L12.3347 1.59715C11.0073 2.10354 10.3423 3.59116 10.8504 4.91773L12.2832 8.66001C12.7913 9.98658 12.1263 11.4742 10.7989 11.9806L7.045 13.4134C5.71844 13.9198 5.05349 15.4049 5.55988 16.7315L6.99021 20.4796C7.4966 21.8062 8.98173 22.4711 10.3083 21.9647L14.0564 20.5344C15.383 20.028 16.0479 18.5429 15.5415 17.2163L14.1187 13.4881C13.6139 12.1649 14.2739 10.6822 15.5955 10.1725L19.3394 8.72974C20.6677 8.21755 22.1586 8.88249 22.6658 10.2115L24.0937 13.9522C24.6 15.2787 26.0852 15.9437 27.4117 15.4373L31.1598 14.007C32.4864 13.5006 33.1514 12.0155 32.645 10.6889L31.2146 6.94079C30.7082 5.61422 29.2231 4.94927 27.8965 5.45566L24.1318 6.89264C22.8036 7.39902 21.3152 6.73076 20.8113 5.40087Z" fill="#0073D1"/>
<path d="M12.7149 35.4803L13.4188 37.339C13.9227 38.6689 15.4103 39.3372 16.7394 38.8308L20.4792 37.4037C21.8066 36.8974 22.4715 35.4097 21.9635 34.0832L21.2487 32.2162C20.3447 29.8536 21.5277 27.2063 23.8911 26.3039L25.7697 25.5866C27.0963 25.0803 27.7612 23.5951 27.2548 22.2686L25.8245 18.5205C25.3181 17.1939 23.833 16.529 22.5064 17.0353L18.7583 18.4657C17.4317 18.9721 16.7668 20.4572 17.2732 21.7838L18.6961 25.5119C19.2008 26.8352 18.5408 28.3178 17.2192 28.8275L13.4753 30.2703C12.1471 30.7825 10.6561 30.1176 10.1489 28.7885L8.72105 25.0479C8.21466 23.7213 6.72954 23.0564 5.40297 23.5628L1.65487 24.9931C0.328296 25.4995 -0.336648 26.9846 0.16974 28.3112L1.60008 32.0593C2.10647 33.3859 3.59159 34.0508 4.91816 33.5444L6.80342 32.8247C9.1685 31.9223 11.8183 33.1119 12.7149 35.4803Z" fill="#0073D1"/>
<path d="M118.527 1.63781C118.527 0.693106 117.729 -0.0556842 116.786 0.00325601L81.9981 2.19318C80.2539 2.30275 78.9016 3.6094 78.9016 5.18418C78.9016 6.75896 77.5493 8.06561 75.8052 8.17519L72.0778 8.41012C70.425 8.51388 69.0213 7.33508 69.0213 5.84248C69.0213 4.34988 67.6166 3.17025 65.9647 3.27485L58.2958 3.75799C56.5301 3.86923 55.1603 5.19248 55.1603 6.78719C55.1603 8.38189 53.7906 9.70514 52.0241 9.81638L41.0902 10.5046C40.2277 10.5585 39.5553 11.2741 39.5553 12.1391V16.0757C39.5553 17.0204 40.3531 17.7692 41.2961 17.7102L53.9151 16.9158C55.6808 16.8045 57.0497 15.4821 57.0497 13.8882C57.0497 12.2944 58.4187 10.9719 60.1844 10.8607L64.0022 10.62C65.655 10.5154 67.0588 11.695 67.0588 13.1876C67.0588 14.6802 68.4634 15.8598 70.1154 15.7552L77.8233 15.2696C79.5674 15.16 80.9197 13.8534 80.9197 12.2786C80.9197 10.7038 82.272 9.39716 84.0161 9.28758L114.732 7.35168C116.868 7.2172 118.525 5.61669 118.525 3.68743V1.63781H118.527Z" fill="#0073D1"/>
<path d="M50.7943 28.7403L49.2851 29.3505C49.0427 29.4485 48.7289 29.3472 48.5994 29.1197C48.2109 28.4373 47.5534 28.1285 46.6278 28.1933C45.4515 28.2755 44.8638 28.6988 44.8638 29.4617C44.8638 29.7664 44.9733 30.0163 45.1933 30.2114C45.4133 30.4073 45.9106 30.555 46.6859 30.6571C47.9809 30.8282 48.929 31.0257 49.5308 31.2507C50.1327 31.4748 50.6391 31.8692 51.0517 32.4337C51.4634 32.9973 51.6693 33.6448 51.6693 34.377C51.6693 35.5251 51.2276 36.5495 50.3435 37.4485C49.4594 38.3476 48.1503 38.8581 46.4136 38.9793C45.1111 39.0707 44.0029 38.8515 43.0881 38.3227C42.3376 37.8885 41.7964 37.2468 41.466 36.3968C41.3423 36.0796 41.4975 35.7451 41.8238 35.6488L43.5339 35.1424C43.7804 35.0694 44.0834 35.1955 44.1905 35.4296C44.5865 36.2897 45.3959 36.6773 46.6179 36.5918C47.2986 36.5437 47.8074 36.3768 48.142 36.0896C48.4765 35.8015 48.6434 35.4753 48.6434 35.1092C48.6434 34.7365 48.4915 34.4592 48.1877 34.2749C47.8838 34.0914 47.2986 33.9395 46.4311 33.82C44.814 33.5975 43.6609 33.2206 42.9727 32.6885C42.2845 32.1564 41.94 31.3312 41.94 30.2147C41.94 29.0857 42.3509 28.1036 43.1728 27.271C43.9946 26.4384 45.1087 25.9718 46.5166 25.8739C48.7646 25.7161 50.2887 26.4201 51.089 27.9841C51.2368 28.2738 51.0956 28.6183 50.7943 28.7403Z" fill="#0073D1"/>
<path d="M72.4876 26.6733L67.4752 27.0236C67.183 27.0444 66.9556 27.2876 66.9556 27.5806V29.0682C66.9556 29.392 67.2303 29.6477 67.5533 29.6253L71.1162 29.3762C71.4392 29.3538 71.7139 29.6095 71.7139 29.9333V31.2067C71.7139 31.4997 71.4873 31.743 71.1943 31.7637L67.4752 32.0236C67.183 32.0443 66.9556 32.2875 66.9556 32.5806V34.2359C66.9556 34.5596 67.2303 34.8153 67.5524 34.7929L72.4096 34.4534C72.7325 34.431 73.0065 34.6867 73.0065 35.0104V36.4042C73.0065 36.6973 72.7799 36.9405 72.4868 36.9612L64.5266 37.5175C64.2036 37.5399 63.9297 37.2842 63.9297 36.9604V25.3716C63.9297 25.0786 64.1563 24.8353 64.4494 24.8146L72.4096 24.2584C72.7325 24.236 73.0065 24.4917 73.0065 24.8154V26.1162C73.0065 26.4101 72.7799 26.6534 72.4876 26.6733Z" fill="#0073D1"/>
<path d="M93.6662 25.1923L88.6538 25.5426C88.3616 25.5634 88.1342 25.8066 88.1342 26.0996V27.5873C88.1342 27.911 88.4089 28.1667 88.7319 28.1443L92.2948 27.8952C92.6178 27.8728 92.8925 28.1285 92.8925 28.4523V29.7257C92.8925 30.0187 92.6659 30.262 92.3729 30.2827L88.6538 30.5426C88.3616 30.5633 88.1342 30.8065 88.1342 31.0996V32.7549C88.1342 33.0787 88.4089 33.3343 88.731 33.3119L93.5882 32.9724C93.9111 32.95 94.1851 33.2057 94.1851 33.5294V34.9232C94.1851 35.2163 93.9584 35.4595 93.6654 35.4803L85.7052 36.0365C85.3822 36.0589 85.1083 35.8032 85.1083 35.4794V23.8906C85.1083 23.5976 85.3349 23.3544 85.6279 23.3336L93.5882 22.7774C93.9111 22.755 94.1851 23.0107 94.1851 23.3344V24.6353C94.1859 24.9291 93.9593 25.1724 93.6662 25.1923Z" fill="#0073D1"/>
<path d="M106.288 22.4097C106.288 22.1167 106.514 21.8734 106.807 21.8527L110.167 21.6177C111.748 21.5073 112.926 21.6435 113.702 22.027C114.476 22.4105 115.171 23.0539 115.785 23.9571C116.399 24.8611 116.705 26.0358 116.705 27.4819C116.705 29.2999 116.169 30.8572 115.096 32.1514C114.024 33.4464 112.545 34.1595 110.66 34.2907L106.885 34.5547C106.563 34.5771 106.289 34.3214 106.289 33.9977V22.4097H106.288ZM109.211 24.5423V31.4018C109.211 31.7256 109.485 31.9812 109.808 31.9588L110.438 31.9148C111.521 31.8393 112.326 31.3777 112.853 30.531C113.379 29.6842 113.642 28.7146 113.642 27.6222C113.642 26.8526 113.492 26.1511 113.191 25.5169C112.891 24.8827 112.518 24.4502 112.071 24.2169C111.626 23.9845 111.09 23.8898 110.464 23.9338L109.73 23.9853C109.438 24.0061 109.211 24.2493 109.211 24.5423Z" fill="#0073D1"/>
<path d="M73.3165 20.7444L72.0912 22.1382C71.657 22.6305 70.9065 22.6786 70.4134 22.2461L69.0238 21.0225C68.5373 20.5941 67.7977 20.6365 67.3627 21.1121C67.3552 21.1188 67.3494 21.1254 67.3427 21.1329L66.8065 21.7464L66.1133 22.535C65.7098 22.9957 65.025 23.068 64.536 22.721C64.5061 22.6878 64.4746 22.6562 64.4397 22.6255L63.0467 21.4019C62.6956 21.0947 62.5711 20.6248 62.6823 20.204C62.6889 20.1791 62.6973 20.1566 62.7047 20.1326C62.7537 19.9906 62.8301 19.8578 62.9347 19.7383L64.1633 18.3428C64.1849 18.3195 64.2031 18.2946 64.2231 18.2706C64.2239 18.2689 64.2247 18.2681 64.2256 18.2664C64.6423 17.8596 65.2956 17.8173 65.7621 18.1626C65.7895 18.1834 65.8169 18.2058 65.8427 18.2282L67.2273 19.4535C67.7204 19.8893 68.4742 19.8412 68.9076 19.3473L70.1387 17.9485C70.572 17.4545 71.3233 17.4072 71.8164 17.8405L73.2102 19.0658C73.7016 19.5 73.7506 20.2513 73.3165 20.7444Z" fill="#0073D1"/>
<path d="M64.4397 22.6745C64.4738 22.7052 64.5062 22.7368 64.536 22.77C64.502 22.7451 64.4688 22.7201 64.4364 22.6911L63.0426 21.465C62.6881 21.1537 62.5636 20.6772 62.6832 20.2521C62.5711 20.6738 62.6964 21.1429 63.0476 21.45L64.4397 22.6745Z" fill="#0073D1"/>
<path d="M67.3427 21.1819C67.3493 21.1736 67.3551 21.1678 67.3626 21.1611C67.3559 21.1711 67.3485 21.1811 67.3394 21.1902L66.8064 21.7954L67.3427 21.1819Z" fill="#0073D1"/>
<path d="M85.7254 19.9126L84.5001 21.3064C84.0659 21.7987 83.3155 21.8468 82.8224 21.4143L81.4327 20.1907C80.9462 19.7623 80.2066 19.8047 79.7716 20.2804C79.7641 20.287 79.7583 20.2936 79.7517 20.3011L79.2154 20.9146L78.5222 21.7032C78.1188 22.164 77.4339 22.2362 76.945 21.8892C76.9151 21.856 76.8835 21.8244 76.8487 21.7937L75.4557 20.5701C75.1045 20.2629 74.98 19.7931 75.0912 19.3722C75.0979 19.3473 75.1062 19.3249 75.1136 19.3008C75.1626 19.1588 75.239 19.026 75.3436 18.9065L76.5722 17.511C76.5938 17.4877 76.6121 17.4628 76.632 17.4388C76.6328 17.4371 76.6336 17.4363 76.6345 17.4346C77.0512 17.0279 77.7045 16.9855 78.1711 17.3309C78.1985 17.3516 78.2259 17.374 78.2516 17.3964L79.6363 18.6217C80.1294 19.0576 80.8832 19.0094 81.3165 18.5155L82.5476 17.1167C82.9809 16.6227 83.7322 16.5754 84.2253 17.0088L85.6191 18.234C86.1114 18.6682 86.1595 19.4203 85.7254 19.9126Z" fill="#0073D1"/>
<path d="M76.8487 21.8319C76.8827 21.8626 76.9151 21.8941 76.945 21.9273C76.9109 21.9024 76.8777 21.8775 76.8454 21.8485L75.4515 20.6224C75.0971 20.3111 74.9726 19.8345 75.0921 19.4095C74.98 19.8312 75.1054 20.3003 75.4565 20.6074L76.8487 21.8319Z" fill="#0073D1"/>
<path d="M79.7517 20.3393C79.7584 20.331 79.7642 20.3252 79.7717 20.3185C79.765 20.3285 79.7575 20.3385 79.7484 20.3476L79.2155 20.9528L79.7517 20.3393Z" fill="#0073D1"/>
</svg>
