<svg width="16" height="16" viewBox="0 0 16 16" fill="none" xmlns="http://www.w3.org/2000/svg">
<path d="M14.6667 15.1667H1.33337C1.06004 15.1667 0.833374 14.94 0.833374 14.6667C0.833374 14.3934 1.06004 14.1667 1.33337 14.1667H14.6667C14.94 14.1667 15.1667 14.3934 15.1667 14.6667C15.1667 14.94 14.94 15.1667 14.6667 15.1667Z" fill="#6A6A6A"/>
<path d="M14 15.1666H2C1.72667 15.1666 1.5 14.94 1.5 14.6666V3.99998C1.5 1.98665 2.65333 0.833313 4.66667 0.833313H11.3333C13.3467 0.833313 14.5 1.98665 14.5 3.99998V14.6666C14.5 14.94 14.2733 15.1666 14 15.1666ZM2.5 14.1666H13.5V3.99998C13.5 2.51998 12.8133 1.83331 11.3333 1.83331H4.66667C3.18667 1.83331 2.5 2.51998 2.5 3.99998V14.1666Z" fill="#6A6A6A"/>
<path d="M6.66663 11.5H4.66663C4.39329 11.5 4.16663 11.2733 4.16663 11C4.16663 10.7267 4.39329 10.5 4.66663 10.5H6.66663C6.93996 10.5 7.16663 10.7267 7.16663 11C7.16663 11.2733 6.93996 11.5 6.66663 11.5Z" fill="#6A6A6A"/>
<path d="M11.3334 11.5H9.33337C9.06004 11.5 8.83337 11.2733 8.83337 11C8.83337 10.7267 9.06004 10.5 9.33337 10.5H11.3334C11.6067 10.5 11.8334 10.7267 11.8334 11C11.8334 11.2733 11.6067 11.5 11.3334 11.5Z" fill="#292D32"/>
<path d="M6.66663 8.5H4.66663C4.39329 8.5 4.16663 8.27333 4.16663 8C4.16663 7.72667 4.39329 7.5 4.66663 7.5H6.66663C6.93996 7.5 7.16663 7.72667 7.16663 8C7.16663 8.27333 6.93996 8.5 6.66663 8.5Z" fill="#292D32"/>
<path d="M11.3334 8.5H9.33337C9.06004 8.5 8.83337 8.27333 8.83337 8C8.83337 7.72667 9.06004 7.5 9.33337 7.5H11.3334C11.6067 7.5 11.8334 7.72667 11.8334 8C11.8334 8.27333 11.6067 8.5 11.3334 8.5Z" fill="#292D32"/>
<path d="M6.66663 5.5H4.66663C4.39329 5.5 4.16663 5.27333 4.16663 5C4.16663 4.72667 4.39329 4.5 4.66663 4.5H6.66663C6.93996 4.5 7.16663 4.72667 7.16663 5C7.16663 5.27333 6.93996 5.5 6.66663 5.5Z" fill="#292D32"/>
<path d="M11.3334 5.5H9.33337C9.06004 5.5 8.83337 5.27333 8.83337 5C8.83337 4.72667 9.06004 4.5 9.33337 4.5H11.3334C11.6067 4.5 11.8334 4.72667 11.8334 5C11.8334 5.27333 11.6067 5.5 11.3334 5.5Z" fill="#292D32"/>
</svg>
