<svg width="24" height="24" viewBox="0 0 24 24" fill="none" xmlns="http://www.w3.org/2000/svg">
<path d="M15 2H9C4 2 2 4 2 9V15C2 20 4 22 9 22H15C20 22 22 20 22 15V9C22 4 20 2 15 2ZM8.25 15.75C8.25 16.16 7.91 16.5 7.5 16.5C7.09 16.5 6.75 16.16 6.75 15.75V15C6.75 14.59 7.09 14.25 7.5 14.25H15.75C16.16 14.25 16.5 14.59 16.5 15C16.5 15.41 16.16 15.75 15.75 15.75H8.25ZM15.75 9.75H8.25C7.84 9.75 7.5 9.41 7.5 9C7.5 8.59 7.84 8.25 8.25 8.25H15.75C16.16 8.25 16.5 8.59 16.5 9C16.5 9.41 16.16 9.75 15.75 9.75Z" fill="white"/>
</svg>
