<svg width="20" height="20" viewBox="0 0 20 20" fill="none" xmlns="http://www.w3.org/2000/svg">
<path d="M12.5 18.9583H7.49998C3.82498 18.9583 2.70831 17.8416 2.70831 14.1666V5.83329C2.70831 2.15829 3.82498 1.04163 7.49998 1.04163H12.5C16.175 1.04163 17.2916 2.15829 17.2916 5.83329V14.1666C17.2916 17.8416 16.175 18.9583 12.5 18.9583ZM7.49998 2.29163C4.51665 2.29163 3.95831 2.85829 3.95831 5.83329V14.1666C3.95831 17.1416 4.51665 17.7083 7.49998 17.7083H12.5C15.4833 17.7083 16.0416 17.1416 16.0416 14.1666V5.83329C16.0416 2.85829 15.4833 2.29163 12.5 2.29163H7.49998Z" fill="#989898"/>
<path d="M11.6666 5.20837H8.33331C7.99165 5.20837 7.70831 4.92504 7.70831 4.58337C7.70831 4.24171 7.99165 3.95837 8.33331 3.95837H11.6666C12.0083 3.95837 12.2916 4.24171 12.2916 4.58337C12.2916 4.92504 12.0083 5.20837 11.6666 5.20837Z" fill="#989898"/>
<path d="M9.99998 16.55C8.94165 16.55 8.08331 15.6917 8.08331 14.6333C8.08331 13.575 8.94165 12.7167 9.99998 12.7167C11.0583 12.7167 11.9166 13.575 11.9166 14.6333C11.9166 15.6917 11.0583 16.55 9.99998 16.55ZM9.99998 13.9583C9.63331 13.9583 9.33331 14.2583 9.33331 14.625C9.33331 14.9917 9.63331 15.2917 9.99998 15.2917C10.3666 15.2917 10.6666 14.9917 10.6666 14.625C10.6666 14.2583 10.3666 13.9583 9.99998 13.9583Z" fill="#989898"/>
</svg>
