<svg width="16" height="16" viewBox="0 0 16 16" fill="none" xmlns="http://www.w3.org/2000/svg">
<path d="M8.69997 10.8333H7.44666C6.55999 10.8333 5.83331 10.0867 5.83331 9.16667C5.83331 8.89333 6.05998 8.66667 6.33331 8.66667C6.60665 8.66667 6.83331 8.89333 6.83331 9.16667C6.83331 9.53333 7.10666 9.83333 7.44666 9.83333H8.69997C8.95997 9.83333 9.16665 9.6 9.16665 9.31333C9.16665 8.95333 9.06665 8.9 8.83999 8.82L6.83331 8.12C6.40665 7.96666 5.83331 7.66 5.83331 6.68C5.83331 5.84667 6.49332 5.16 7.29999 5.16H8.5533C9.43997 5.16 10.1666 5.90667 10.1666 6.82667C10.1666 7.1 9.93998 7.32667 9.66665 7.32667C9.39331 7.32667 9.16665 7.1 9.16665 6.82667C9.16665 6.46 8.8933 6.16 8.5533 6.16H7.29999C7.03999 6.16 6.83331 6.39334 6.83331 6.68C6.83331 7.04 6.93331 7.09333 7.15997 7.17333L9.16665 7.87333C9.59331 8.02667 10.1666 8.33333 10.1666 9.31333C10.1666 10.1533 9.50664 10.8333 8.69997 10.8333Z" fill="#6A6A6A"/>
<path d="M8 11.5C7.72667 11.5 7.5 11.2733 7.5 11V5C7.5 4.72667 7.72667 4.5 8 4.5C8.27333 4.5 8.5 4.72667 8.5 5V11C8.5 11.2733 8.27333 11.5 8 11.5Z" fill="#6A6A6A"/>
<path d="M7.99998 15.1667C4.04665 15.1667 0.833313 11.9533 0.833313 8.00001C0.833313 4.04668 4.04665 0.833344 7.99998 0.833344C8.27331 0.833344 8.49998 1.06001 8.49998 1.33334C8.49998 1.60668 8.27331 1.83334 7.99998 1.83334C4.59998 1.83334 1.83331 4.60001 1.83331 8.00001C1.83331 11.4 4.59998 14.1667 7.99998 14.1667C11.4 14.1667 14.1666 11.4 14.1666 8.00001C14.1666 7.72668 14.3933 7.50001 14.6666 7.50001C14.94 7.50001 15.1666 7.72668 15.1666 8.00001C15.1666 11.9533 11.9533 15.1667 7.99998 15.1667Z" fill="#6A6A6A"/>
<path d="M14.6667 4.50001C14.3933 4.50001 14.1667 4.27334 14.1667 4.00001V1.83334H12C11.7267 1.83334 11.5 1.60668 11.5 1.33334C11.5 1.06001 11.7267 0.833344 12 0.833344H14.6667C14.94 0.833344 15.1667 1.06001 15.1667 1.33334V4.00001C15.1667 4.27334 14.94 4.50001 14.6667 4.50001Z" fill="#6A6A6A"/>
<path d="M11.3333 5.16666C11.2066 5.16666 11.08 5.11999 10.98 5.01999C10.7866 4.82666 10.7866 4.50666 10.98 4.31333L14.3133 0.979991C14.5066 0.786658 14.8266 0.786658 15.02 0.979991C15.2133 1.17332 15.2133 1.49332 15.02 1.68666L11.6866 5.01999C11.5866 5.11999 11.46 5.16666 11.3333 5.16666Z" fill="#6A6A6A"/>
</svg>
