<svg width="16" height="16" viewBox="0 0 16 16" fill="none" xmlns="http://www.w3.org/2000/svg">
<path d="M11.7066 11.98H4.29331C1.63998 11.98 0.833313 11.1733 0.833313 8.52001V4.29334C0.833313 1.64001 1.63998 0.833344 4.29331 0.833344H11.7C14.3533 0.833344 15.16 1.64001 15.16 4.29334V8.51334C15.1666 11.1733 14.36 11.98 11.7066 11.98ZM4.29331 1.83334C2.19998 1.83334 1.83331 2.20001 1.83331 4.29334V8.51334C1.83331 10.6067 2.19998 10.9733 4.29331 10.9733H11.7C13.7933 10.9733 14.16 10.6067 14.16 8.51334V4.29334C14.16 2.20001 13.7933 1.83334 11.7 1.83334H4.29331Z" fill="#6A6A6A"/>
<path d="M8 15.1667C7.72667 15.1667 7.5 14.94 7.5 14.6667V11.48C7.5 11.2067 7.72667 10.98 8 10.98C8.27333 10.98 8.5 11.2067 8.5 11.48V14.6667C8.5 14.94 8.27333 15.1667 8 15.1667Z" fill="#6A6A6A"/>
<path d="M14.6666 9.16666H1.33331C1.05998 9.16666 0.833313 8.93999 0.833313 8.66666C0.833313 8.39332 1.05998 8.16666 1.33331 8.16666H14.6666C14.94 8.16666 15.1666 8.39332 15.1666 8.66666C15.1666 8.93999 14.94 9.16666 14.6666 9.16666Z" fill="#6A6A6A"/>
<path d="M11 15.1667H5C4.72667 15.1667 4.5 14.94 4.5 14.6667C4.5 14.3933 4.72667 14.1667 5 14.1667H11C11.2733 14.1667 11.5 14.3933 11.5 14.6667C11.5 14.94 11.2733 15.1667 11 15.1667Z" fill="#6A6A6A"/>
</svg>
