<svg width="16" height="16" viewBox="0 0 16 16" fill="none" xmlns="http://www.w3.org/2000/svg">
<path d="M5.71318 10.68C5.58651 10.68 5.45984 10.6334 5.35984 10.5334C5.16651 10.34 5.16651 10.02 5.35984 9.82669L9.7265 5.46003C9.91984 5.2667 10.2398 5.2667 10.4332 5.46003C10.6265 5.65337 10.6265 5.97336 10.4332 6.1667L6.06651 10.5334C5.96651 10.6334 5.83984 10.68 5.71318 10.68Z" fill="#6A6A6A"/>
<path d="M5.98669 7.40669C5.26003 7.40669 4.66669 6.81337 4.66669 6.0867C4.66669 5.36003 5.26003 4.76669 5.98669 4.76669C6.71336 4.76669 7.30668 5.36003 7.30668 6.0867C7.30668 6.81337 6.71336 7.40669 5.98669 7.40669ZM5.98669 5.77337C5.81336 5.77337 5.66669 5.91337 5.66669 6.09337C5.66669 6.27337 5.80669 6.41336 5.98669 6.41336C6.16669 6.41336 6.30668 6.27337 6.30668 6.09337C6.30668 5.91337 6.16003 5.77337 5.98669 5.77337Z" fill="#6A6A6A"/>
<path d="M10.3467 11.2267C9.61999 11.2267 9.02667 10.6333 9.02667 9.90666C9.02667 9.17999 9.61999 8.58667 10.3467 8.58667C11.0733 8.58667 11.6667 9.17999 11.6667 9.90666C11.6667 10.6333 11.0733 11.2267 10.3467 11.2267ZM10.3467 9.59334C10.1733 9.59334 10.0267 9.73333 10.0267 9.91333C10.0267 10.0933 10.1667 10.2333 10.3467 10.2333C10.5267 10.2333 10.6667 10.0933 10.6667 9.91333C10.6667 9.73333 10.5267 9.59334 10.3467 9.59334Z" fill="#6A6A6A"/>
<path d="M7.99998 15.1667C4.04665 15.1667 0.833313 11.9533 0.833313 8.00001C0.833313 4.04668 4.04665 0.833344 7.99998 0.833344C11.9533 0.833344 15.1666 4.04668 15.1666 8.00001C15.1666 11.9533 11.9533 15.1667 7.99998 15.1667ZM7.99998 1.83334C4.59998 1.83334 1.83331 4.60001 1.83331 8.00001C1.83331 11.4 4.59998 14.1667 7.99998 14.1667C11.4 14.1667 14.1666 11.4 14.1666 8.00001C14.1666 4.60001 11.4 1.83334 7.99998 1.83334Z" fill="#6A6A6A"/>
</svg>
